<svg width="262" height="275" viewBox="0 0 262 275" fill="none" xmlns="http://www.w3.org/2000/svg">
<rect x="-43" y="-266" width="360" height="1254" fill="white"/>
<path d="M0 238.042H262" stroke="#3C3C3C"/>
<path d="M48.2812 245.982V237.787" stroke="#3C3C3C"/>
<path d="M41.0106 248.906V248.162H42.7506V248.906H41.0106ZM45.3906 248.162V248.906H43.5906V248.162H45.3906ZM47.2386 250.01H43.5906V249.446H46.2546V247.622H43.5906V246.95H42.7506V247.622H40.1826V249.446H42.7506V250.01H39.2706V250.622H47.2386V250.01ZM39.2226 249.194C38.8506 248.606 38.0226 247.79 37.2906 247.238L36.6066 247.742C37.3386 248.318 38.1426 249.146 38.5026 249.746L39.2226 249.194ZM41.1186 253.85H45.3186V254.462H41.1186V253.85ZM41.1186 252.758H45.3186V253.358H41.1186V252.758ZM41.1186 251.678H45.3186V252.266H41.1186V251.678ZM41.9706 254.978H44.2506L43.7586 255.326C44.6586 255.71 45.6306 256.202 46.1946 256.586L46.9626 256.166C46.3746 255.818 45.3786 255.338 44.4786 254.978H46.1826V251.174H40.2906V254.978H41.9226C41.3946 255.434 40.5186 255.842 39.7386 256.13C39.8946 256.238 40.1706 256.466 40.3386 256.61C39.6906 256.394 39.1986 256.034 38.8626 255.506V251.642H36.4986V252.482H38.0226V255.59C37.4826 256.094 36.8946 256.598 36.3906 256.97L36.8586 257.798C37.4466 257.27 37.9866 256.754 38.5146 256.25C39.2466 257.174 40.3386 257.606 41.8986 257.666C43.2426 257.726 45.7866 257.702 47.1186 257.642C47.1666 257.39 47.2986 256.994 47.4066 256.79C45.9666 256.898 43.2066 256.934 41.8866 256.874C41.3466 256.85 40.8546 256.778 40.4226 256.646C41.2026 256.298 42.1266 255.758 42.7146 255.23L41.9706 254.978ZM53.8146 251.498C53.5506 250.814 52.8546 249.854 52.1706 249.158L51.4626 249.53C51.7626 249.854 52.0746 250.226 52.3386 250.622C51.6546 250.79 50.9826 250.958 50.3586 251.114L50.2506 248.57C51.3666 248.342 52.5906 248.006 53.4906 247.634L52.8786 246.986C52.2186 247.31 51.1266 247.646 50.1306 247.898L49.3626 247.682L49.4826 251.318C49.0986 251.414 48.7386 251.498 48.4266 251.57L48.6666 252.422C49.7946 252.122 51.3066 251.714 52.7586 251.318C52.8786 251.534 52.9746 251.726 53.0346 251.906L53.8146 251.498ZM53.4546 253.634V254.81H50.8506V253.634H53.4546ZM57.0066 254.81H54.2946V253.634H57.0066V254.81ZM54.2946 256.718V255.494H57.0066V256.718H54.2946ZM50.8506 256.718V255.494H53.4546V256.718H50.8506ZM50.0106 257.894H50.8506V257.462H57.0066V257.846H57.8826V252.902H50.0106V257.894ZM53.9106 247.61V248.366H55.3146C55.1466 249.974 54.7026 251.234 53.1306 251.918C53.3226 252.062 53.5626 252.362 53.6466 252.554C55.4226 251.738 55.9506 250.274 56.1546 248.366H57.9786C57.8826 250.37 57.7746 251.138 57.6066 251.33C57.5106 251.45 57.4026 251.462 57.2226 251.45C57.0426 251.45 56.5506 251.45 56.0346 251.402C56.1666 251.63 56.2506 251.942 56.2746 252.194C56.8026 252.218 57.3306 252.23 57.6186 252.206C57.9306 252.17 58.1466 252.086 58.3266 251.87C58.6266 251.534 58.7346 250.586 58.8546 247.982C58.8666 247.85 58.8666 247.61 58.8666 247.61H53.9106ZM42.3186 261.118H41.3706V264.97C41.3706 266.362 40.5426 269.638 36.5226 271.174C36.7266 271.354 37.0146 271.726 37.1346 271.906C40.5186 270.514 41.6106 267.862 41.8386 266.698C42.0786 267.85 43.2426 270.598 46.7106 271.906C46.8426 271.666 47.1066 271.282 47.2986 271.09C43.1706 269.626 42.3186 266.338 42.3186 264.97V261.118ZM45.8226 263.338C45.4266 264.382 44.6706 265.822 44.0826 266.698L44.8266 267.046C45.4386 266.194 46.2066 264.838 46.7826 263.722L45.8226 263.338ZM38.3466 263.362C38.1546 264.694 37.7466 265.99 36.7866 266.71L37.5546 267.238C38.6226 266.422 39.0186 264.97 39.2346 263.542L38.3466 263.362ZM52.9746 267.514C52.7346 267.238 51.7146 266.182 51.3426 265.87V265.138H52.8426V264.298H51.3426V262.27C51.9066 262.138 52.4346 261.97 52.8666 261.79L52.2426 261.118C51.3666 261.514 49.7946 261.862 48.4506 262.078C48.5586 262.282 48.6786 262.57 48.7266 262.774C49.2786 262.69 49.8906 262.594 50.4786 262.474V264.298H48.5226V265.138H50.3586C49.8786 266.506 49.0506 268.054 48.2946 268.894C48.4386 269.11 48.6546 269.458 48.7386 269.71C49.3506 268.978 49.9866 267.778 50.4786 266.566V271.87H51.3426V266.734C51.7506 267.226 52.2426 267.886 52.4346 268.222L52.9746 267.514ZM53.8986 267.73V266.77H55.5786V267.73H53.8986ZM53.8986 265.246H55.5786V266.182H53.8986V265.246ZM58.1586 265.246V266.182H56.4306V265.246H58.1586ZM58.1586 267.73H56.4306V266.77H58.1586V267.73ZM56.4306 270.91V269.974H59.0226V269.254H56.4306V268.402H58.9626V264.574H56.4306V263.77H59.2026V263.038H56.4306V262.162C57.4626 262.066 58.4226 261.934 59.1786 261.766L58.6386 261.094C57.2946 261.394 54.8106 261.598 52.8186 261.682C52.9026 261.85 53.0106 262.162 53.0226 262.354C53.8266 262.33 54.7146 262.294 55.5786 262.234V263.038H52.6026V263.77H55.5786V264.574H53.1066V268.402H55.5786V269.254H52.9746V269.974H55.5786V270.91H52.2906V271.654H59.4306V270.91H56.4306Z" fill="#3C3C3C"/>
<path d="M102.935 246.237V238.041" stroke="#3C3C3C"/>
<path d="M94.2164 249.089C94.0364 249.845 93.7004 250.985 93.4124 251.669L93.9284 251.885C94.2524 251.237 94.6124 250.169 94.9484 249.317L94.2164 249.089ZM91.6244 249.677C91.6124 250.781 91.4564 251.933 90.9884 252.569L91.5404 252.929C92.0684 252.185 92.2244 250.925 92.2364 249.773L91.6244 249.677ZM94.6004 255.965C94.4084 255.665 93.5924 254.477 93.2564 254.021C93.3644 253.169 93.3884 252.293 93.3884 251.417V247.361H92.6084V251.417C92.6084 253.577 92.4524 255.809 90.9884 257.561C91.1684 257.693 91.4564 257.969 91.5764 258.161C92.3804 257.213 92.8364 256.145 93.0884 255.017C93.4244 255.545 93.8204 256.205 93.9884 256.565L94.6004 255.965ZM95.8964 249.809H97.6124V250.457L96.1484 250.565L96.1964 251.057L97.6124 250.949V251.189C97.6124 251.825 97.8404 251.969 98.7044 251.969H100.288C100.876 251.969 101.068 251.777 101.128 251.081C100.948 251.045 100.696 250.973 100.552 250.901C100.516 251.393 100.456 251.465 100.18 251.465H98.7764C98.3924 251.465 98.3204 251.429 98.3204 251.189V250.889L100.3 250.733L100.24 250.253L98.3204 250.397V249.809H101.068C100.984 250.109 100.888 250.397 100.792 250.613L101.44 250.793C101.62 250.409 101.824 249.809 101.956 249.293L101.452 249.149L101.308 249.185H98.3684V248.573H101.104V247.937H98.3684V247.193H97.5764V249.185H95.1284V252.329C95.1284 253.949 95.0204 256.157 93.9764 257.741C94.1684 257.825 94.4924 258.029 94.6244 258.173C95.7284 256.517 95.8964 254.057 95.8964 252.329V249.809ZM97.2164 253.961H98.4164V254.489H97.2164V253.961ZM97.2164 252.941H98.4164V253.445H97.2164V252.941ZM100.276 253.445H99.0644V252.941H100.276V253.445ZM100.276 254.489H99.0644V253.961H100.276V254.489ZM96.5324 255.029H100.984V252.413H96.5324V255.029ZM96.8324 256.121H97.7204V257.285H96.8324V256.121ZM99.1964 256.121V257.285H98.2964V256.121H99.1964ZM100.696 256.121V257.285H99.7604V256.121H100.696ZM101.356 257.285V255.509H96.1844V257.285H95.4164V257.945H102.04V257.285H101.356ZM108.964 247.373H108.016V251.225C108.016 252.617 107.188 255.893 103.168 257.429C103.372 257.609 103.66 257.981 103.78 258.161C107.164 256.769 108.256 254.117 108.484 252.953C108.724 254.105 109.888 256.853 113.356 258.161C113.488 257.921 113.752 257.537 113.944 257.345C109.816 255.881 108.964 252.593 108.964 251.225V247.373ZM112.468 249.593C112.072 250.637 111.316 252.077 110.728 252.953L111.472 253.301C112.084 252.449 112.852 251.093 113.428 249.977L112.468 249.593ZM104.992 249.617C104.8 250.949 104.392 252.245 103.432 252.965L104.2 253.493C105.268 252.677 105.664 251.225 105.88 249.797L104.992 249.617ZM101.668 262.081H96.9524V261.205H96.0764V262.081H91.4924V262.765H101.668V262.081ZM93.9644 263.989H99.1844V264.865H93.9644V263.989ZM100.06 265.441V263.401H93.1364V265.441H100.06ZM92.0084 272.161C92.6084 271.633 93.1604 270.757 93.4724 269.953L92.6564 269.725C92.3324 270.517 91.7684 271.345 91.1804 271.813L92.0084 272.161ZM94.6604 270.025C94.8044 270.685 94.8884 271.525 94.9004 272.041L95.7644 271.933C95.7524 271.429 95.6444 270.601 95.4884 269.953L94.6604 270.025ZM100.264 266.029L100.072 266.077H91.9004V266.737H98.7764C98.1524 266.977 97.4444 267.205 96.7724 267.361H96.1364V268.585C96.1364 268.741 96.0764 268.789 95.8484 268.801C95.6204 268.825 94.8164 268.825 93.8804 268.789C93.9884 269.017 94.1324 269.293 94.1924 269.533C95.3084 269.533 96.0164 269.545 96.4484 269.425C96.8804 269.293 97.0004 269.089 97.0004 268.609V267.937C98.2964 267.625 99.7964 267.109 100.852 266.521L100.264 266.029ZM97.1084 270.013C97.3964 270.661 97.6724 271.501 97.7684 272.029L98.6444 271.849C98.5484 271.333 98.2364 270.493 97.9484 269.857L97.1084 270.013ZM99.5804 269.965C100.144 270.649 100.78 271.573 101.056 272.161L101.944 271.849C101.632 271.249 100.972 270.349 100.408 269.689L99.5804 269.965ZM106.564 261.613H103.612V262.333H106.564V261.613ZM106.9 263.185H103.048V263.917H106.9V263.185ZM106.588 264.805H103.54V265.513H106.588V264.805ZM103.54 267.109H106.588V266.389H103.54V267.109ZM105.844 268.729V270.733H104.248V268.729H105.844ZM106.588 271.453V267.997H103.528V272.017H104.248V271.453H106.588ZM108.832 265.573V266.257H112.348V265.573H110.896V264.421H112.168V263.737H110.896V262.705H110.164V263.737H108.928V264.421H110.164V265.573H108.832ZM111.412 267.865V269.581H109.684V267.865H111.412ZM112.096 270.265V267.181H109V270.733H109.684V270.265H112.096ZM113.656 261.697H107.5V265.969C107.5 267.733 107.428 270.073 106.492 271.729C106.696 271.825 107.056 272.077 107.188 272.221C108.184 270.469 108.316 267.829 108.316 265.969V262.477H112.84V271.021C112.84 271.225 112.78 271.273 112.6 271.273C112.396 271.285 111.772 271.297 111.136 271.261C111.244 271.501 111.364 271.909 111.4 272.137C112.288 272.137 112.888 272.125 113.212 271.981C113.548 271.837 113.656 271.549 113.656 271.021V261.697Z" fill="#3C3C3C"/>
<path d="M158.74 245.982V237.787" stroke="#3C3C3C"/>
<path d="M151.903 252.266H152.767V249.53H156.595V251.21H157.423V248.882H152.767V248.15H156.727V247.454H148.015V248.15H151.903V248.882H147.331V251.21H148.135V249.53H151.903V252.266ZM153.403 251.954H156.259V251.39H153.403V251.954ZM153.403 250.178V250.73H155.971V250.178H153.403ZM151.291 250.178H148.759V250.73H151.291V250.178ZM148.531 251.954H151.291V251.39H148.531V251.954ZM149.203 255.566V254.75H151.867V255.566H149.203ZM151.867 253.322V254.15H149.203V253.322H151.867ZM155.575 254.15H152.719V253.322H155.575V254.15ZM152.719 255.566V254.75H155.575V255.566H152.719ZM153.619 257.078C152.863 257.078 152.719 257.006 152.719 256.598V256.214H156.439V252.674H148.351V256.838H149.203V256.214H151.867V256.598C151.867 257.558 152.239 257.786 153.583 257.786H156.343C157.471 257.786 157.747 257.426 157.879 255.974C157.627 255.926 157.303 255.806 157.099 255.674C157.039 256.874 156.919 257.078 156.283 257.078H153.619ZM169.387 248.75V248.042H162.055C162.211 247.754 162.343 247.466 162.463 247.166L161.539 246.926C160.987 248.354 160.003 249.698 158.887 250.55C159.115 250.694 159.523 250.958 159.715 251.126C160.399 250.514 161.083 249.686 161.659 248.75H169.387ZM168.487 250.19V249.518H161.359V250.19H168.487ZM163.411 251.942H162.571V254.042H159.367V254.762H161.971C161.227 255.674 160.063 256.562 159.055 257.006C159.235 257.162 159.487 257.462 159.619 257.654C160.627 257.126 161.779 256.178 162.571 255.158V257.882H163.411V255.662C164.323 256.214 165.307 256.898 165.835 257.378L166.423 256.814C165.763 256.25 164.455 255.422 163.447 254.87L163.411 254.906V254.762H166.555V254.042H163.411V251.942ZM160.183 252.446C160.567 252.902 160.963 253.538 161.107 253.97L161.803 253.658C161.659 253.226 161.251 252.602 160.855 252.146L160.183 252.446ZM165.163 252.086C164.911 252.566 164.431 253.274 164.071 253.718L164.647 253.982C165.031 253.574 165.523 252.95 165.943 252.386L165.163 252.086ZM160.135 250.982V251.69H166.939C167.047 255.218 167.359 257.882 168.907 257.882C169.627 257.882 169.819 257.306 169.891 255.818C169.699 255.71 169.447 255.482 169.291 255.302C169.267 256.334 169.195 257.018 168.967 257.018C168.103 257.018 167.851 254.09 167.803 250.982H160.135ZM155.803 265.546V264.742H152.659C152.719 264.154 152.743 263.53 152.767 262.858H151.939C151.915 263.53 151.891 264.166 151.831 264.742H148.939V265.546H151.723C151.423 267.274 150.715 268.498 148.795 269.23C148.987 269.386 149.227 269.698 149.323 269.914C151.147 269.17 151.987 268.006 152.383 266.422C152.911 268.102 153.835 269.254 155.371 269.866C155.491 269.638 155.731 269.314 155.923 269.146C154.279 268.582 153.355 267.334 152.923 265.546H155.803ZM148.279 270.502V262.354H156.463V270.502H148.279ZM147.391 261.502V271.894H148.279V271.354H156.463V271.894H157.375V261.502H147.391ZM161.887 269.398C161.155 270.046 160.003 270.682 158.947 271.102C159.151 271.222 159.475 271.534 159.631 271.702C160.651 271.222 161.887 270.466 162.703 269.71L161.887 269.398ZM169.723 269.062C169.099 268.414 167.839 267.562 166.807 266.998L166.195 267.466C166.603 267.706 167.047 267.982 167.467 268.282C166.063 268.306 164.635 268.33 163.315 268.354C164.407 267.682 165.619 266.83 166.555 266.062L165.763 265.618C165.115 266.218 164.167 266.95 163.231 267.586C162.943 267.382 162.595 267.166 162.235 266.95C162.823 266.53 163.519 265.954 164.107 265.426H169.627V264.718H164.791V263.95H168.391V263.266H164.791V262.498H169.087V261.814H164.791V260.926H163.915V261.814H159.787V262.498H163.915V263.266H160.447V263.95H163.915V264.718H159.151V265.426H162.931C162.535 265.822 162.043 266.266 161.611 266.59C161.335 266.458 161.071 266.326 160.831 266.206L160.255 266.71C160.999 267.082 161.899 267.61 162.499 268.054C162.331 268.174 162.151 268.27 161.983 268.378C160.927 268.39 159.967 268.402 159.187 268.402L159.259 269.158C160.519 269.134 162.151 269.11 163.915 269.062V271.882H164.779V269.038C165.955 269.014 167.167 268.978 168.355 268.942C168.643 269.17 168.883 269.398 169.063 269.59L169.723 269.062ZM165.967 269.866C166.999 270.346 168.259 271.102 168.883 271.642L169.579 271.114C168.919 270.562 167.623 269.83 166.627 269.398L165.967 269.866Z" fill="#3C3C3C"/>
<path d="M210.373 245.982V237.787" stroke="#3C3C3C"/>
<path d="M209.049 250.934C208.773 250.418 208.233 249.626 207.741 248.954C207.909 248.39 208.029 247.766 208.113 247.106L207.369 247.01C207.189 248.666 206.745 250.082 205.881 250.97C206.049 251.09 206.325 251.354 206.433 251.486C206.853 251.018 207.189 250.454 207.465 249.794C207.873 250.394 208.281 251.054 208.521 251.498L209.049 250.934ZM206.457 249.83C206.265 249.602 205.941 249.254 205.617 248.942C205.761 248.366 205.857 247.742 205.941 247.106L205.197 247.01C205.005 248.69 204.621 250.226 203.841 251.222C204.021 251.306 204.321 251.558 204.453 251.678C204.849 251.138 205.161 250.478 205.401 249.722C205.653 250.01 205.893 250.298 206.037 250.502L206.457 249.83ZM203.133 246.974C202.737 247.838 202.113 248.75 201.477 249.374C201.657 249.506 201.945 249.794 202.065 249.938C202.713 249.242 203.421 248.186 203.877 247.19L203.133 246.974ZM198.393 253.742C198.273 254.786 198.069 255.866 197.709 256.598C197.889 256.658 198.225 256.802 198.381 256.91C198.729 256.142 198.969 255.002 199.113 253.874L198.393 253.742ZM200.685 253.922C200.973 254.666 201.261 255.638 201.345 256.274L202.017 256.07C201.921 255.434 201.621 254.474 201.321 253.73L200.685 253.922ZM203.445 249.386C203.037 250.418 202.353 251.414 201.609 252.098C201.417 251.666 201.177 251.21 200.937 250.814L200.313 251.066C200.505 251.402 200.697 251.786 200.865 252.17L199.305 252.194C200.061 251.174 200.913 249.794 201.549 248.678L200.805 248.342C200.529 248.93 200.145 249.65 199.737 250.346C199.581 250.118 199.377 249.878 199.161 249.626C199.533 248.954 199.989 248.006 200.337 247.214L199.569 246.95C199.365 247.586 199.017 248.45 198.681 249.122C198.561 249.002 198.441 248.894 198.321 248.786L197.901 249.398C198.405 249.878 198.957 250.526 199.317 251.042C199.053 251.462 198.789 251.858 198.537 252.206H197.805L197.973 253.022C198.465 252.998 199.005 252.974 199.569 252.938V257.894H200.325V252.89L201.141 252.842C201.225 253.07 201.285 253.286 201.333 253.478L201.993 253.178C201.933 252.902 201.813 252.566 201.657 252.206C201.813 252.374 202.005 252.638 202.077 252.77C202.269 252.59 202.461 252.374 202.653 252.146V257.894H203.397V251.114C203.697 250.634 203.973 250.106 204.177 249.59L203.445 249.386ZM206.925 254.33H208.689V253.562H206.925V251.51H206.157V256.526C205.725 256.154 205.365 255.542 205.137 254.522C205.221 253.85 205.269 253.142 205.293 252.458H204.513C204.465 254.258 204.285 256.274 203.457 257.39C203.649 257.498 203.901 257.738 204.021 257.906C204.441 257.354 204.717 256.622 204.909 255.806C205.533 257.426 206.505 257.762 207.705 257.762H208.773C208.809 257.558 208.917 257.174 209.013 256.994C208.749 257.006 207.933 257.006 207.741 257.006C207.465 257.006 207.189 256.982 206.925 256.91V254.33ZM215.829 247.118H214.881V250.97C214.881 252.362 214.053 255.638 210.033 257.174C210.237 257.354 210.525 257.726 210.645 257.906C214.029 256.514 215.121 253.862 215.349 252.698C215.589 253.85 216.753 256.598 220.221 257.906C220.353 257.666 220.617 257.282 220.809 257.09C216.681 255.626 215.829 252.338 215.829 250.97V247.118ZM219.333 249.338C218.937 250.382 218.181 251.822 217.593 252.698L218.337 253.046C218.949 252.194 219.717 250.838 220.293 249.722L219.333 249.338ZM211.857 249.362C211.665 250.694 211.257 251.99 210.297 252.71L211.065 253.238C212.133 252.422 212.529 250.97 212.745 249.542L211.857 249.362Z" fill="#3C3C3C"/>
<path d="M36.8664 8.31055C36.8664 8.76758 36.9894 9.14062 37.2355 9.42969C37.4816 9.71875 37.7941 9.86328 38.173 9.86328C38.5441 9.86328 38.8351 9.72461 39.046 9.44727C39.2609 9.16602 39.3683 8.80273 39.3683 8.35742C39.3683 7.86133 39.2472 7.48242 39.005 7.2207C38.7628 6.95508 38.466 6.82227 38.1144 6.82227C37.8292 6.82227 37.5773 6.9082 37.3585 7.08008C37.0304 7.33398 36.8664 7.74414 36.8664 8.31055ZM39.216 4.64258C39.216 4.50586 39.1632 4.35547 39.0578 4.19141C38.8781 3.92578 38.6066 3.79297 38.2433 3.79297C37.7003 3.79297 37.3136 4.09766 37.0832 4.70703C36.9582 5.04297 36.8722 5.53906 36.8253 6.19531C37.0324 5.94922 37.2726 5.76953 37.546 5.65625C37.8195 5.54297 38.132 5.48633 38.4835 5.48633C39.2374 5.48633 39.8546 5.74219 40.3351 6.25391C40.8195 6.76562 41.0617 7.41992 41.0617 8.2168C41.0617 9.00977 40.8253 9.70898 40.3527 10.3145C39.88 10.9199 39.1457 11.2227 38.1496 11.2227C37.0792 11.2227 36.2902 10.7754 35.7824 9.88086C35.3878 9.18164 35.1906 8.2793 35.1906 7.17383C35.1906 6.52539 35.2179 5.99805 35.2726 5.5918C35.3703 4.86914 35.5597 4.26758 35.841 3.78711C36.0832 3.37695 36.3996 3.04688 36.7902 2.79688C37.1847 2.54687 37.6554 2.42188 38.2023 2.42188C38.9914 2.42188 39.6203 2.625 40.089 3.03125C40.5578 3.43359 40.8214 3.9707 40.88 4.64258H39.216ZM41.8527 5.49219C41.8527 4.58203 42.1144 3.8457 42.6378 3.2832C43.1652 2.7168 43.8488 2.43359 44.6886 2.43359C45.9816 2.43359 46.8683 3.00586 47.3488 4.15039C47.6222 4.79883 47.7589 5.65234 47.7589 6.71094C47.7589 7.73828 47.6281 8.5957 47.3664 9.2832C46.8664 10.5918 45.9484 11.2461 44.6124 11.2461C43.9757 11.2461 43.4035 11.0586 42.8957 10.6836C42.3878 10.3047 42.0968 9.75391 42.0226 9.03125H43.6867C43.7257 9.28125 43.8312 9.48438 44.0031 9.64062C44.1749 9.79688 44.4035 9.875 44.6886 9.875C45.2394 9.875 45.6261 9.57031 45.8488 8.96094C45.9699 8.625 46.046 8.13477 46.0773 7.49023C45.9249 7.68164 45.7628 7.82812 45.591 7.92969C45.2785 8.11719 44.8937 8.21094 44.4367 8.21094C43.7609 8.21094 43.1613 7.97852 42.6378 7.51367C42.1144 7.04492 41.8527 6.37109 41.8527 5.49219ZM44.7999 6.85156C45.0304 6.85156 45.2472 6.78516 45.4503 6.65234C45.8292 6.41016 46.0187 5.99023 46.0187 5.39258C46.0187 4.91211 45.9054 4.53125 45.6789 4.25C45.4562 3.96875 45.1496 3.82812 44.7589 3.82812C44.4738 3.82812 44.2296 3.9082 44.0265 4.06836C43.7062 4.31836 43.546 4.74219 43.546 5.33984C43.546 5.84375 43.6476 6.22266 43.8507 6.47656C44.0578 6.72656 44.3742 6.85156 44.7999 6.85156ZM54.5031 3.92188C54.2531 4.16797 53.9054 4.60742 53.4601 5.24023C53.0148 5.86914 52.6417 6.51953 52.341 7.19141C52.1027 7.71875 51.8878 8.36328 51.6964 9.125C51.505 9.88672 51.4093 10.5117 51.4093 11H49.6749C49.7257 9.47656 50.2257 7.89258 51.1749 6.24805C51.7882 5.22852 52.3019 4.51758 52.716 4.11523H48.4796L48.5031 2.61523H54.5031V3.92188ZM56.9347 6.83398C56.9347 7.81055 57.0148 8.55859 57.1749 9.07812C57.3351 9.59375 57.6632 9.85156 58.1593 9.85156C58.6554 9.85156 58.9796 9.59375 59.132 9.07812C59.2882 8.55859 59.3664 7.81055 59.3664 6.83398C59.3664 5.81055 59.2882 5.05273 59.132 4.56055C58.9796 4.06836 58.6554 3.82227 58.1593 3.82227C57.6632 3.82227 57.3351 4.06836 57.1749 4.56055C57.0148 5.05273 56.9347 5.81055 56.9347 6.83398ZM58.1593 2.44531C59.2414 2.44531 59.9992 2.82617 60.4328 3.58789C60.8703 4.34961 61.089 5.43164 61.089 6.83398C61.089 8.23633 60.8703 9.31641 60.4328 10.0742C59.9992 10.832 59.2414 11.2109 58.1593 11.2109C57.0773 11.2109 56.3175 10.832 55.88 10.0742C55.4464 9.31641 55.2296 8.23633 55.2296 6.83398C55.2296 5.43164 55.4464 4.34961 55.88 3.58789C56.3175 2.82617 57.0773 2.44531 58.1593 2.44531Z" fill="#3C3C3C"/>
<path d="M92.5648 121.974C92.5648 122.314 92.6195 122.595 92.7288 122.818C92.932 123.228 93.3011 123.433 93.8363 123.433C94.1644 123.433 94.4495 123.322 94.6917 123.099C94.9378 122.872 95.0609 122.548 95.0609 122.126C95.0609 121.568 94.8343 121.195 94.3812 121.007C94.1234 120.902 93.7171 120.849 93.1624 120.849V119.654C93.7054 119.646 94.0843 119.593 94.2991 119.495C94.6702 119.331 94.8558 118.999 94.8558 118.499C94.8558 118.175 94.7601 117.911 94.5687 117.708C94.3812 117.505 94.1156 117.404 93.7718 117.404C93.3773 117.404 93.0863 117.529 92.8988 117.779C92.7152 118.029 92.6273 118.363 92.6351 118.781H91.0765C91.0921 118.359 91.1644 117.958 91.2933 117.579C91.43 117.247 91.6448 116.941 91.9378 116.659C92.1566 116.46 92.4163 116.308 92.7171 116.202C93.0179 116.097 93.387 116.044 93.8245 116.044C94.637 116.044 95.2913 116.255 95.7874 116.677C96.2874 117.095 96.5374 117.657 96.5374 118.365C96.5374 118.865 96.389 119.286 96.0921 119.63C95.9046 119.845 95.7093 119.991 95.5062 120.07C95.6585 120.07 95.8773 120.2 96.1624 120.462C96.5882 120.857 96.8011 121.396 96.8011 122.079C96.8011 122.798 96.5511 123.431 96.0511 123.978C95.555 124.521 94.8187 124.792 93.8421 124.792C92.639 124.792 91.8031 124.4 91.3343 123.615C91.0882 123.197 90.9515 122.65 90.9241 121.974H92.5648ZM98.1195 118.722V117.585C98.6468 117.562 99.0159 117.527 99.2269 117.48C99.5628 117.406 99.8363 117.257 100.047 117.034C100.192 116.882 100.301 116.679 100.375 116.425C100.418 116.273 100.44 116.159 100.44 116.085H101.828V124.581H100.118V118.722H98.1195ZM104.143 118.722V117.585C104.67 117.562 105.039 117.527 105.25 117.48C105.586 117.406 105.86 117.257 106.071 117.034C106.215 116.882 106.325 116.679 106.399 116.425C106.442 116.273 106.463 116.159 106.463 116.085H107.852V124.581H106.141V118.722H104.143ZM111.948 121.974C111.948 122.314 112.002 122.595 112.112 122.818C112.315 123.228 112.684 123.433 113.219 123.433C113.547 123.433 113.832 123.322 114.075 123.099C114.321 122.872 114.444 122.548 114.444 122.126C114.444 121.568 114.217 121.195 113.764 121.007C113.506 120.902 113.1 120.849 112.545 120.849V119.654C113.088 119.646 113.467 119.593 113.682 119.495C114.053 119.331 114.239 118.999 114.239 118.499C114.239 118.175 114.143 117.911 113.951 117.708C113.764 117.505 113.498 117.404 113.155 117.404C112.76 117.404 112.469 117.529 112.282 117.779C112.098 118.029 112.01 118.363 112.018 118.781H110.459C110.475 118.359 110.547 117.958 110.676 117.579C110.813 117.247 111.028 116.941 111.321 116.659C111.539 116.46 111.799 116.308 112.1 116.202C112.401 116.097 112.77 116.044 113.207 116.044C114.02 116.044 114.674 116.255 115.17 116.677C115.67 117.095 115.92 117.657 115.92 118.365C115.92 118.865 115.772 119.286 115.475 119.63C115.287 119.845 115.092 119.991 114.889 120.07C115.041 120.07 115.26 120.2 115.545 120.462C115.971 120.857 116.184 121.396 116.184 122.079C116.184 122.798 115.934 123.431 115.434 123.978C114.938 124.521 114.201 124.792 113.225 124.792C112.022 124.792 111.186 124.4 110.717 123.615C110.471 123.197 110.334 122.65 110.307 121.974H111.948Z" fill="#3C3C3C"/>
<path d="M147.511 124.093C147.511 124.433 147.566 124.714 147.675 124.937C147.878 125.347 148.247 125.552 148.782 125.552C149.11 125.552 149.396 125.441 149.638 125.218C149.884 124.992 150.007 124.667 150.007 124.246C150.007 123.687 149.78 123.314 149.327 123.126C149.069 123.021 148.663 122.968 148.109 122.968V121.773C148.651 121.765 149.03 121.712 149.245 121.615C149.616 121.451 149.802 121.119 149.802 120.619C149.802 120.294 149.706 120.031 149.515 119.828C149.327 119.625 149.062 119.523 148.718 119.523C148.323 119.523 148.032 119.648 147.845 119.898C147.661 120.148 147.573 120.482 147.581 120.9H146.023C146.038 120.478 146.11 120.078 146.239 119.699C146.376 119.367 146.591 119.06 146.884 118.779C147.103 118.58 147.362 118.427 147.663 118.322C147.964 118.216 148.333 118.164 148.771 118.164C149.583 118.164 150.237 118.375 150.734 118.796C151.234 119.214 151.484 119.777 151.484 120.484C151.484 120.984 151.335 121.406 151.038 121.75C150.851 121.964 150.655 122.111 150.452 122.189C150.605 122.189 150.823 122.32 151.109 122.582C151.534 122.976 151.747 123.515 151.747 124.199C151.747 124.917 151.497 125.55 150.997 126.097C150.501 126.64 149.765 126.912 148.788 126.912C147.585 126.912 146.749 126.519 146.28 125.734C146.034 125.316 145.898 124.769 145.87 124.093H147.511ZM154.314 122.535C154.314 123.511 154.394 124.259 154.554 124.779C154.714 125.294 155.042 125.552 155.538 125.552C156.034 125.552 156.359 125.294 156.511 124.779C156.667 124.259 156.745 123.511 156.745 122.535C156.745 121.511 156.667 120.753 156.511 120.261C156.359 119.769 156.034 119.523 155.538 119.523C155.042 119.523 154.714 119.769 154.554 120.261C154.394 120.753 154.314 121.511 154.314 122.535ZM155.538 118.146C156.62 118.146 157.378 118.527 157.812 119.289C158.249 120.05 158.468 121.132 158.468 122.535C158.468 123.937 158.249 125.017 157.812 125.775C157.378 126.533 156.62 126.912 155.538 126.912C154.456 126.912 153.696 126.533 153.259 125.775C152.825 125.017 152.609 123.937 152.609 122.535C152.609 121.132 152.825 120.05 153.259 119.289C153.696 118.527 154.456 118.146 155.538 118.146ZM165.189 124.873H164.228V126.701H162.593V124.873H159.23V123.414L162.353 118.257H164.228V123.566H165.189V124.873ZM162.593 123.566V119.898L160.466 123.566H162.593ZM165.968 126.701C165.984 126.091 166.114 125.535 166.36 125.031C166.599 124.464 167.161 123.865 168.048 123.232C168.817 122.681 169.316 122.287 169.542 122.048C169.89 121.677 170.064 121.271 170.064 120.83C170.064 120.47 169.964 120.171 169.765 119.933C169.566 119.695 169.28 119.576 168.909 119.576C168.401 119.576 168.056 119.765 167.872 120.144C167.767 120.363 167.704 120.71 167.685 121.187H166.062C166.089 120.464 166.22 119.88 166.454 119.435C166.9 118.587 167.691 118.164 168.827 118.164C169.726 118.164 170.441 118.414 170.972 118.914C171.503 119.41 171.769 120.068 171.769 120.888C171.769 121.517 171.581 122.076 171.206 122.564C170.96 122.888 170.556 123.25 169.993 123.648L169.325 124.123C168.907 124.419 168.62 124.634 168.464 124.767C168.312 124.9 168.183 125.054 168.077 125.23H171.786V126.701H165.968Z" fill="#3C3C3C"/>
<path d="M202.256 225.978C202.256 226.318 202.311 226.599 202.42 226.822C202.623 227.232 202.992 227.437 203.527 227.437C203.856 227.437 204.141 227.326 204.383 227.103C204.629 226.877 204.752 226.552 204.752 226.131C204.752 225.572 204.525 225.199 204.072 225.011C203.815 224.906 203.408 224.853 202.854 224.853V223.658C203.397 223.65 203.775 223.597 203.99 223.5C204.361 223.336 204.547 223.004 204.547 222.504C204.547 222.179 204.451 221.916 204.26 221.713C204.072 221.51 203.807 221.408 203.463 221.408C203.068 221.408 202.777 221.533 202.59 221.783C202.406 222.033 202.318 222.367 202.326 222.785H200.768C200.783 222.363 200.856 221.963 200.984 221.584C201.121 221.252 201.336 220.945 201.629 220.664C201.848 220.465 202.107 220.312 202.408 220.207C202.709 220.101 203.078 220.049 203.516 220.049C204.328 220.049 204.982 220.26 205.479 220.681C205.979 221.099 206.229 221.662 206.229 222.369C206.229 222.869 206.08 223.291 205.783 223.635C205.596 223.849 205.4 223.996 205.197 224.074C205.35 224.074 205.568 224.205 205.854 224.467C206.279 224.861 206.492 225.4 206.492 226.084C206.492 226.802 206.242 227.435 205.742 227.982C205.246 228.525 204.51 228.797 203.533 228.797C202.33 228.797 201.494 228.404 201.025 227.619C200.779 227.201 200.643 226.654 200.615 225.978H202.256ZM208.959 226.312C209.025 226.676 209.152 226.957 209.34 227.156C209.527 227.351 209.801 227.449 210.16 227.449C210.574 227.449 210.889 227.304 211.104 227.015C211.322 226.722 211.432 226.355 211.432 225.914C211.432 225.48 211.33 225.115 211.127 224.818C210.924 224.517 210.607 224.367 210.178 224.367C209.975 224.367 209.799 224.392 209.65 224.443C209.389 224.537 209.191 224.711 209.059 224.965L207.559 224.894L208.156 220.201H212.838V221.619H209.363L209.059 223.476C209.316 223.308 209.518 223.197 209.662 223.142C209.904 223.052 210.199 223.008 210.547 223.008C211.25 223.008 211.863 223.244 212.387 223.717C212.91 224.189 213.172 224.877 213.172 225.779C213.172 226.564 212.92 227.265 212.416 227.883C211.912 228.5 211.158 228.808 210.154 228.808C209.346 228.808 208.682 228.592 208.162 228.158C207.643 227.724 207.354 227.109 207.295 226.312H208.959ZM215.738 224.42C215.738 225.396 215.818 226.144 215.979 226.664C216.139 227.179 216.467 227.437 216.963 227.437C217.459 227.437 217.783 227.179 217.936 226.664C218.092 226.144 218.17 225.396 218.17 224.42C218.17 223.396 218.092 222.638 217.936 222.146C217.783 221.654 217.459 221.408 216.963 221.408C216.467 221.408 216.139 221.654 215.979 222.146C215.818 222.638 215.738 223.396 215.738 224.42ZM216.963 220.031C218.045 220.031 218.803 220.412 219.236 221.174C219.674 221.935 219.893 223.017 219.893 224.42C219.893 225.822 219.674 226.902 219.236 227.66C218.803 228.418 218.045 228.797 216.963 228.797C215.881 228.797 215.121 228.418 214.684 227.66C214.25 226.902 214.033 225.822 214.033 224.42C214.033 223.017 214.25 221.935 214.684 221.174C215.121 220.412 215.881 220.031 216.963 220.031Z" fill="#3C3C3C"/>
<path d="M29.2954 15.1284H67.1772V237.787H29.2954V15.1284Z" fill="#CCCCCC"/>
<path d="M84.5696 128.421H122.709V238.041H84.5696V128.421Z" fill="#CCCCCC"/>
<path d="M139.844 131.043H177.726V237.786H139.844V131.043Z" fill="#00A29A"/>
<path d="M191.249 234.37H229.131V237.786H191.249V234.37Z" fill="#CCCCCC"/>
</svg>
