<svg width="15" height="16" viewBox="0 0 15 16" fill="none" xmlns="http://www.w3.org/2000/svg">
<path d="M7.5065 14.391C11.2083 14.391 14.2093 11.4468 14.2093 7.8149C14.2093 4.183 11.2083 1.23877 7.5065 1.23877C3.80465 1.23877 0.803711 4.183 0.803711 7.8149C0.803711 11.4468 3.80465 14.391 7.5065 14.391Z" fill="#199B97"/>
<path d="M7.50642 15.1606C3.44197 15.1606 0.0905762 11.8725 0.0905762 7.88485C0.0905762 3.8972 3.44197 0.609131 7.50642 0.609131C11.5709 0.609131 14.9223 3.8972 14.9223 7.88485C14.9223 11.8725 11.6422 15.1606 7.50642 15.1606ZM7.50642 2.00831C4.22634 2.00831 1.5167 4.66674 1.5167 7.88485C1.5167 11.103 4.22634 13.7614 7.50642 13.7614C10.7865 13.7614 13.4961 11.103 13.4961 7.88485C13.4961 4.59679 10.8578 2.00831 7.50642 2.00831Z" fill="white"/>
<path d="M6.15156 10.963L3.79845 7.81487C3.58454 7.46508 3.65584 7.04532 3.94107 6.83545C4.2976 6.62557 4.72543 6.69553 4.93935 6.97536L6.29417 8.7943L10.1447 5.01652C10.4299 4.73668 10.8578 4.73668 11.143 5.01652C11.4282 5.29635 11.4282 5.71611 11.143 5.99594L6.15156 10.963Z" fill="white"/>
</svg>
