<svg width="135" height="135" viewBox="0 0 135 135" fill="none" xmlns="http://www.w3.org/2000/svg">
<path d="M67.6667 1.36395C57.7045 1.36395 47.8702 3.60882 38.894 7.9319C29.9177 12.255 22.0301 18.5452 15.8166 26.3356C9.60315 34.1261 5.22344 43.2166 3.00266 52.9323C0.781879 62.648 0.777054 72.7394 2.98855 82.4572C5.20004 92.175 9.57105 101.27 15.7771 109.066C21.9831 116.862 29.8647 123.16 38.8368 127.492C47.8089 131.824 57.641 134.078 67.6032 134.087C77.5655 134.097 87.4019 131.861 96.3822 127.547L83.6198 100.96C78.6307 103.357 73.166 104.599 67.6315 104.593C62.0969 104.588 56.6346 103.336 51.6501 100.929C46.6656 98.5227 42.2869 95.0239 38.8391 90.6926C35.3913 86.3612 32.963 81.3086 31.7344 75.9098C30.5058 70.5111 30.5085 64.9047 31.7422 59.5071C32.976 54.1095 35.4092 49.0592 38.8611 44.7312C42.313 40.4032 46.695 36.9086 51.6818 34.5069C56.6686 32.1052 62.1321 30.8581 67.6667 30.8581L67.6667 1.36395Z" fill="#CCCCCC" stroke="white"/>
<path d="M96.3823 127.547C109.934 121.036 120.873 110.113 127.407 96.5679C133.941 83.0227 135.682 67.6588 132.345 52.9941C129.008 38.3294 120.79 25.2337 109.039 15.8532C97.2879 6.47274 82.7002 1.36386 67.6667 1.36386L67.6667 30.858C76.0187 30.858 84.1229 33.6962 90.6513 38.9076C97.1797 44.119 101.745 51.3944 103.599 59.5414C105.453 67.6885 104.486 76.224 100.856 83.7491C97.226 91.2742 91.1486 97.3425 83.6198 100.96L96.3823 127.547Z" fill="#00A29A" stroke="white"/>
</svg>
