<svg width="134" height="134" viewBox="0 0 134 134" fill="none" xmlns="http://www.w3.org/2000/svg">
<path d="M67.3379 1.29102C54.2174 1.29102 41.3947 5.2016 30.5072 12.5234C19.6196 19.8451 11.1614 30.2458 6.21267 42.3971C1.2639 54.5485 0.0491616 67.8992 2.72358 80.7442C5.398 93.5892 11.8402 105.346 21.2275 114.512C30.6148 123.679 42.5212 129.839 55.4262 132.207C68.3312 134.575 81.6492 133.043 93.6793 127.806C105.71 122.57 115.906 113.867 122.967 102.808C130.027 91.7493 133.631 78.8371 133.319 65.7204L103.994 66.4184C104.168 73.7055 102.165 80.8789 98.2427 87.0226C94.3201 93.1664 88.6555 98.0015 81.972 100.911C75.2886 103.82 67.8897 104.671 60.7203 103.356C53.5508 102.04 46.9362 98.6174 41.721 93.5249C36.5058 88.4324 32.9268 81.9011 31.4411 74.765C29.9553 67.6289 30.6301 60.2119 33.3794 53.4611C36.1288 46.7103 40.8278 40.9322 46.8764 36.8645C52.925 32.7969 60.0488 30.6243 67.3379 30.6243V1.29102Z" fill="#CCCCCC" stroke="white"/>
<path d="M133.319 65.7201C132.909 48.4927 125.777 32.1089 113.448 20.0697C101.119 8.03051 84.5702 1.2908 67.3379 1.2908V30.6241C76.9114 30.6241 86.1052 34.3684 92.9548 41.0569C99.8043 47.7453 103.766 56.8474 103.994 66.4182L133.319 65.7201Z" fill="#00A29A" stroke="white"/>
</svg>
