<svg width="15" height="15" viewBox="0 0 15 15" fill="none" xmlns="http://www.w3.org/2000/svg">
<path d="M7.5065 13.9013C11.2083 13.9013 14.2093 10.9571 14.2093 7.32516C14.2093 3.69326 11.2083 0.749023 7.5065 0.749023C3.80465 0.749023 0.803711 3.69326 0.803711 7.32516C0.803711 10.9571 3.80465 13.9013 7.5065 13.9013Z" fill="#B61115"/>
<path d="M7.50641 14.6008C3.44197 14.6008 0.0905762 11.3127 0.0905762 7.32504C0.0905762 3.33738 3.44197 0.0493164 7.50641 0.0493164C11.5709 0.0493164 14.9223 3.33738 14.9223 7.32504C14.9936 11.3127 11.6422 14.6008 7.50641 14.6008ZM7.50641 1.44849C4.22633 1.44849 1.5167 4.10693 1.5167 7.32504C1.5167 10.5431 4.22633 13.2016 7.50641 13.2016C10.7865 13.2016 13.4961 10.5431 13.4961 7.32504C13.4961 4.10693 10.8578 1.44849 7.50641 1.44849Z" fill="white"/>
<path d="M7.00738 7.46498L6.86476 5.15633C6.86476 4.66662 6.79346 4.38679 6.79346 4.17691C6.79346 3.89707 6.86477 3.6872 7.00738 3.54728C7.14999 3.40736 7.36391 3.3374 7.57782 3.3374C7.86305 3.3374 8.07697 3.40736 8.14828 3.61724C8.21958 3.82711 8.29089 4.10695 8.29089 4.45674C8.29089 4.66662 8.29089 4.8765 8.29089 5.08637L8.07697 7.46498C8.07697 7.74481 8.00566 7.95469 7.93435 8.0946C7.86305 8.23452 7.72044 8.30448 7.57782 8.30448C7.36391 8.30448 7.2926 8.23452 7.22129 8.0946C7.07868 8.02465 7.00738 7.81477 7.00738 7.46498ZM7.50652 10.6831C7.2926 10.6831 7.14999 10.6131 7.00738 10.4732C6.86477 10.3333 6.79346 10.1934 6.79346 9.91354C6.79346 9.70366 6.86477 9.56374 7.00738 9.42382C7.14999 9.28391 7.2926 9.21395 7.50652 9.21395C7.72044 9.21395 7.86305 9.28391 8.00566 9.42382C8.14827 9.56374 8.21958 9.70366 8.21958 9.91354C8.21958 10.1234 8.14827 10.3333 8.00566 10.4732C7.93435 10.6131 7.72044 10.6831 7.50652 10.6831Z" fill="white"/>
</svg>
