<svg width="30" height="17" viewBox="0 0 30 17" fill="none" xmlns="http://www.w3.org/2000/svg">
<path d="M0.835693 9.23457C0.835693 10.144 1.54874 10.8436 2.40442 10.8436H3.61663C4.54361 13.2922 6.96803 15.0412 9.82028 15.0412H17.8066C18.1631 16.2305 19.2327 17.07 20.5162 17.07C21.9423 17.07 23.0832 16.0206 23.2971 14.6914H27.8607C29.0729 14.6914 30.0712 13.7119 30.0712 12.5226C30.0712 11.3333 29.0729 10.3539 27.8607 10.3539H23.2971V6.71605H27.8607C29.0729 6.71605 30.0712 5.73663 30.0712 4.54733C30.0712 3.35802 29.0729 2.3786 27.8607 2.3786H23.2971C23.0832 1.04938 21.9423 0 20.5162 0C19.2327 0 18.1631 0.839506 17.8066 2.02881H9.82028C6.96803 2.02881 4.61492 3.77778 3.61663 6.22634H2.40442C1.54874 6.22634 0.835693 6.92593 0.835693 7.76543V7.83539V9.23457ZM27.7894 11.7531C28.2173 11.7531 28.5025 12.1029 28.5025 12.4527C28.5025 12.8724 28.146 13.1523 27.7894 13.1523H23.2258V11.6831H27.7894V11.7531ZM27.7894 3.84774C28.2173 3.84774 28.5025 4.19753 28.5025 4.54733C28.5025 4.89712 28.146 5.24691 27.7894 5.24691H23.2258V3.84774H27.7894ZM20.4449 1.46914C21.158 1.46914 21.7997 2.02881 21.7997 2.79835V14.3416C21.7997 15.0412 21.2293 15.6708 20.4449 15.6708C19.6605 15.6708 19.0901 15.1111 19.0901 14.3416V2.7284C19.1614 2.02881 19.7318 1.46914 20.4449 1.46914ZM9.82028 3.49794H17.664V13.572H9.82028C6.96803 13.572 4.68622 11.3333 4.68622 8.53498C4.68622 5.73663 6.96803 3.49794 9.82028 3.49794ZM2.33313 7.62551H3.18879C3.11748 7.90535 3.11748 8.18519 3.11748 8.46502C3.11748 8.74486 3.11748 9.02469 3.18879 9.30453H2.33313C2.26182 9.30453 2.26182 9.30453 2.26182 9.23457V8.46502V7.69547L2.33313 7.62551Z" fill="#B5B5B5"/>
<path d="M9.24986 8.25517L11.9595 9.72431C12.1734 9.86422 12.4587 9.86422 12.6726 9.72431C12.8865 9.58439 13.0291 9.37451 13.0291 9.09468V8.60496L14.2413 9.58439C14.5265 9.86422 15.0257 9.79427 15.2396 9.44447C15.5248 9.16464 15.4535 8.67492 15.097 8.46505L12.6726 6.57616C12.4587 6.43624 12.1734 6.36628 11.8882 6.5062C11.603 6.64612 11.4604 6.85599 11.4604 7.13583V7.90538L9.89162 6.99591C9.53508 6.78603 9.10725 6.92595 8.89333 7.27575C8.82203 7.41566 8.82202 7.48562 8.82202 7.62554C8.82202 7.90538 8.96464 8.18521 9.24986 8.25517Z" fill="#B5B5B5"/>
</svg>
